<svg width="24" height="24" viewBox="0 0 24 24" fill="none" xmlns="http://www.w3.org/2000/svg">
<path d="M18.0114 8.98945L15.0114 5.98945M3.50141 20.4995C4.33141 21.3295 5.67141 21.3295 6.50141 20.4995L19.5014 7.49945C20.3314 6.66945 20.3314 5.32945 19.5014 4.49945C18.6714 3.66945 17.3314 3.66945 16.5014 4.49945L3.50141 17.4995C2.67141 18.3295 2.67141 19.6695 3.50141 20.4995Z" stroke="#A1A1AA" stroke-width="1.5" stroke-linecap="round" stroke-linejoin="round"/>
<path d="M8.5 2.44L10 2L9.56 3.5L10 5L8.5 4.56L7 5L7.44 3.5L7 2L8.5 2.44ZM4.5 8.44L6 8L5.56 9.5L6 11L4.5 10.56L3 11L3.44 9.5L3 8L4.5 8.44ZM19.5 13.44L21 13L20.56 14.5L21 16L19.5 15.56L18 16L18.44 14.5L18 13L19.5 13.44Z" stroke="#A1A1AA" stroke-width="1.5" stroke-linecap="round" stroke-linejoin="round"/>
</svg>
