<svg width="24" height="24" viewBox="0 0 24 24" fill="none" xmlns="http://www.w3.org/2000/svg">
<path d="M12.0186 2.90991C8.70862 2.90991 6.01862 5.59991 6.01862 8.90991V11.7999C6.01862 12.4099 5.75862 13.3399 5.44862 13.8599L4.29862 15.7699C3.58862 16.9499 4.07862 18.2599 5.37862 18.6999C9.68862 20.1399 14.3386 20.1399 18.6486 18.6999C19.8586 18.2999 20.3886 16.8699 19.7286 15.7699L18.5786 13.8599C18.2786 13.3399 18.0186 12.4099 18.0186 11.7999V8.90991C18.0186 5.60991 15.3186 2.90991 12.0186 2.90991Z" stroke="#18181B" stroke-width="1.5" stroke-miterlimit="10" stroke-linecap="round"/>
<path d="M13.8719 3.19945C12.6626 2.85504 11.3812 2.85504 10.1719 3.19945C10.4619 2.45945 11.1819 1.93945 12.0219 1.93945C12.8619 1.93945 13.5819 2.45945 13.8719 3.19945Z" stroke="#18181B" stroke-width="1.5" stroke-miterlimit="10" stroke-linecap="round" stroke-linejoin="round"/>
<path d="M15.0195 19.0605C15.0195 20.7105 13.6695 22.0605 12.0195 22.0605C11.1995 22.0605 10.4395 21.7205 9.89953 21.1805C9.33769 20.6179 9.02132 19.8557 9.01953 19.0605" stroke="#18181B" stroke-width="1.5" stroke-miterlimit="10"/>
</svg>
