<svg width="32" height="32" viewBox="0 0 32 32" fill="none" xmlns="http://www.w3.org/2000/svg">
<rect width="32" height="32" rx="8" fill="#E4E4E7"/>
<path d="M16.1323 15.0583C16.049 15.05 15.949 15.05 15.8573 15.0583C14.9008 15.0258 13.9945 14.6223 13.3303 13.9332C12.6661 13.2442 12.2962 12.3237 12.299 11.3666C12.299 9.32495 13.949 7.66662 15.999 7.66662C16.4843 7.65786 16.9666 7.74479 17.4184 7.92243C17.8701 8.10008 18.2825 8.36496 18.6318 8.70196C18.9812 9.03896 19.2608 9.44148 19.4546 9.88652C19.6484 10.3316 19.7527 10.8104 19.7615 11.2958C19.7702 11.7811 19.6833 12.2634 19.5056 12.7152C19.328 13.1669 19.0631 13.5793 18.7261 13.9287C18.3891 14.278 17.9866 14.5576 17.5416 14.7514C17.0965 14.9453 16.6176 15.0495 16.1323 15.0583ZM11.9656 18.1333C9.94896 19.4833 9.94896 21.6833 11.9656 23.025C14.2573 24.5583 18.0156 24.5583 20.3073 23.025C22.324 21.675 22.324 19.475 20.3073 18.1333C18.024 16.6083 14.2656 16.6083 11.9656 18.1333Z" fill="#A1A1AA"/>
</svg>
